<?xml version="1.0" standalone="no"?>
<!DOCTYPE svg PUBLIC "-//W3C//DTD SVG 1.1//EN" "http://www.w3.org/Graphics/SVG/1.1/DTD/svg11.dtd" >
<!--
2013-9-30: Created.
-->
<svg>
<metadata>
Created by iconfont
</metadata>
<defs>

<font id="iconfont" horiz-adv-x="1024" >
  <font-face
    font-family="iconfont"
    font-weight="500"
    font-stretch="normal"
    units-per-em="1024"
    ascent="896"
    descent="-128"
  />
    <missing-glyph />
    
    <glyph glyph-name="houtui" unicode="&#58962;" d="M276.039297 382.880937l580.643533-509.877242V892.758179L276.039297 382.880937zM167.31717 896h108.376025v-1024H167.31717z"  horiz-adv-x="1024" />

    
    <glyph glyph-name="zhongbo" unicode="&#58934;" d="M256.75 493.75l-109 109C223.375 728.125 359.75 808.25 511.25 808.25c234.25 0 424.25-190 424.25-424.25 0-234.25-190-424.25-424.25-424.25-172.75 0-328.25 104.75-393.25 264.75-9.125 22.375-34.75 33.25-57.125 24.125-22.375-9.125-33.25-34.75-24.125-57.125 78.375-193.125 266.125-319.375 474.625-319.375 282.75 0 512 229.125 512 512C1023.25 666.75 793.875 896 511.25 896 339.25 896 178.875 809.75 84 666.25L0.625 749.75v-256h256.125zM0.625 493.75M389 238.75c0-40.5 28.75-57 63.375-37l252.375 145.625c35.25 20 35.25 53.375 0 73.375L453 566.25c-35.25 20-63.375 3.5-63.375-37-0.625 0-0.625-290.5-0.625-290.5z m0 0"  horiz-adv-x="1024" />

    
    <glyph glyph-name="qianjin" unicode="&#58886;" d="M223.098 20.388000000000034c134.023 77.755 377.6 219.074 525.845 305.081l-0.583-299.821c-0.066-34.309 27.692-62.175 61.997-62.242 34.297-0.066 62.161 27.692 62.223 62.002l0.727 372.212c0.582 0.336 0.895 0.522 0.895 0.522s-0.311 0.182-0.893 0.523l0.726 372.058c0.066 34.309-27.687 62.161-61.982 62.223-34.304 0.069-62.171-27.673-62.238-61.982l-0.583-299.659c-133.401 78.098-344.179 201.494-482.342 282.378-53.793 32.677-137.937 71.914-138.207-65.724-0.347-176.687-0.914-469.007-1.213-622.287 1.795-78.23 59.193-63.321 95.636-45.281z"  horiz-adv-x="1024" />

    
    <glyph glyph-name="tucengkongzhi" unicode="&#59027;" d="M821.341091 262.097455a28.547879 28.547879 0 0 1-12.241455-2.792728h-0.279272L512 118.954667l-296.820364 140.365575h-0.279272a28.501333 28.501333 0 0 1-12.241455 2.808243A34.521212 34.521212 0 0 1 170.666667 225.543758a36.941576 36.941576 0 0 1 19.766303-33.776485l309.046303-146.152728h0.294788a28.020364 28.020364 0 0 1 24.451878 0h0.294788l309.046303 146.152728A36.910545 36.910545 0 0 1 853.333333 225.543758a34.505697 34.505697 0 0 1-31.992242 36.553697z m0 158.471757a28.315152 28.315152 0 0 1-12.241455-2.792727l-0.139636-0.077576h-0.139636L512 277.333333l-296.820364 140.365576h-0.139636l-0.139636 0.077576a28.268606 28.268606 0 0 1-12.241455 2.792727A34.505697 34.505697 0 0 1 170.666667 384a36.941576 36.941576 0 0 1 19.766303-33.745455l309.046303-146.137212 0.139636-0.077575h0.155152a28.16 28.16 0 0 1 24.451878 0h0.155152l0.139636 0.077575 309.030788 146.137212a36.941576 36.941576 0 0 1 19.766303 33.776485 34.505697 34.505697 0 0 1-31.976727 36.538182z m-630.908121 88.141576l309.046303-146.152727 0.139636-0.077576h0.155152a28.16 28.16 0 0 1 24.451878 0h0.155152l0.139636 0.077576 309.046303 146.152727a38.787879 38.787879 0 0 1 0 67.55297l-309.046303 146.152727h-0.294788a28.299636 28.299636 0 0 1-24.451878 0h-0.279273l-309.046303-146.152727a38.787879 38.787879 0 0 1 0-67.55297z"  horiz-adv-x="1024" />

    
    <glyph glyph-name="yonghu" unicode="&#58899;" d="M908.234905-95.86498c0.180102 0.645706 0.756223 1.290389 0.756223 1.937119 0 1.149173-0.756223 2.279926-1.333368 3.390213-2.036379 16.083304-5.698792 31.983435-12.177344 46.917566-12.490475 30.267351-35.919071 54.783721-62.826907 72.804143-53.212946 36.806277-118.087489 50.366108-173.942611 82.147952-18.61394 11.320836-37.442774 25.970488-44.747133 47.359634-3.430122 29.300326-2.210341 58.882062-2.140757 88.324628 9.930163 7.525394 16.740266 18.159592 22.712281 28.875654 12.4301 22.842241 21.086248 47.783283 24.658609 73.55218 9.060353 1.755993 17.042141 7.243985 22.127973 14.911618 9.624195 14.305821 13.085016 31.762401 14.709003 48.631604 1.462305 14.851243-4.450359 30.209022-16.324804 39.449477 14.72026 48.934502 24.970718 100.390431 19.653619 151.665235-3.086291 30.509874-13.751189 61.727876-36.887119 82.934874-15.889899 14.71105-37.058011 22.297842-58.134025 25.505907-5.186116 7.748475-11.68411 14.68956-19.716041 19.473517-21.713534 13.358239-47.845705 16.748453-72.866564 17.272385-44.262086-0.686638-90.805122-8.132214-127.359666-34.788318-18.272155-13.115716-32.861432-31.115672-42.547025-51.376111-11.916401-24.77936-16.930601-52.404534-18.071587-79.726809-1.75497-44.212968 6.04467-88.202854 16.730033-130.961704-11.219529-8.736988-17.2335-23.023366-16.46602-37.148062 0.876973-14.004969 3.672646-28.049846 9.292644-40.964994 4.973268-11.864212 14.528901-22.598694 27.685549-24.941042 3.37998-24.335245 11.603269-47.88459 23.13286-69.556169 6.739495-12.046361 14.065344-24.376177 25.336038-32.791847 0.020466-29.460985 1.220804-59.063187-2.218528-88.343047-9.052167-25.910113-33.689287-41.590234-56.694233-53.918004-50.28629-25.344225-105.686041-39.833217-153.763013-69.576635-20.874423-13.337773-40.721447-29.138644-55.350632-49.317219-15.749706-21.449521-24.599258-47.056736-28.281113-73.28919-2.109034-2.140757-3.572362-4.298909-3.572362-6.51846 0-1.795902 0.735757-3.570315 2.149966-5.306866-0.110517-1.292436-0.38374-2.541893-0.464581-3.834328 1.654686 0 3.319605 0 4.974291 0 33.55728-24.012903 196.574051-42.275849 393.036561-42.275849 196.59247 0 359.668593 18.262946 393.075447 42.335201 2.198062 0 4.409426 0 6.609535 0C908.798746-100.62847 908.475382-98.265656 908.234905-95.86498z"  horiz-adv-x="1024" />

    
    <glyph glyph-name="chaxun" unicode="&#58913;" d="M932.060218-128c-26.181818 0-52.363636 11.636364-72.727273 29.090909l-206.545454 203.636364-2.909091-2.909091c-69.818182-46.545455-148.363636-69.818182-229.818182-69.818182-107.636364 0-212.363636 43.636364-290.909091 119.272727-168.727273 165.818182-171.636364 439.272727-11.636363 610.909091C198.969309 849.454545 306.605673 896 422.969309 896c107.636364 0 212.363636-43.636364 290.909091-119.272727 133.818182-130.909091 165.818182-340.363636 81.454545-509.090909l-2.90909-2.909091 209.454545-206.545455c40.727273-40.727273 43.636364-107.636364 2.909091-151.272727-17.454545-23.272727-43.636364-34.909091-72.727273-34.909091zM422.969309 750.545455c-75.636364 0-148.363636-32-200.727273-87.272728-107.636364-116.363636-104.727273-296.727273 5.818182-407.272727 52.363636-52.363636 122.181818-78.545455 192-78.545455 75.636364 0 148.363636 32 200.727273 87.272728 107.636364 113.454545 101.818182 296.727273-8.727273 404.363636C562.605673 721.454545 492.787491 750.545455 422.969309 750.545455z"  horiz-adv-x="1036" />

    
    <glyph glyph-name="wzhongshuichi" unicode="&#58976;" d="M71.085275 685.834061h0.527651l0.089432-728.873362a13.414847 13.414847 0 0 1 13.414847-13.414847h972.05324a13.414847 13.414847 0 0 1 13.414848 13.414847l0.080489 733.344978a13.414847 13.414847 0 0 1-13.414848 13.414847h-564.183755a35.956262 35.956262 0 0 0-0.424803 0h-4.216734v0.27724c-17.515319 2.195563-31.064314 17.251493-31.064314 35.495686s13.548996 33.300122 31.064314 35.495685V775.266376h617.351266a35.772926 35.772926 0 0 0 35.772926-35.951791l-4.185432-831.720524a35.772926 35.772926 0 0 0-35.772926-35.594061H36.604646a35.772926 35.772926 0 0 0-35.772925 35.942847L4.569991 685.834061h0.478463c2.048 17.644996 16.0531 31.30131 33.018411 31.30131 16.969782 0 30.974882-13.656314 33.01841-31.30131zM86.011528 329.428402l-25.541869-27.169537L0.831721 348.799441l25.541869 27.169537c44.44786 47.282865 107.108611 74.667039 185.817991 82.291144 40.638044 1.596367 71.921467-4.829345 98.880838-18.812087 20.086498-10.418865 32.535476-20.8109 55.179738-43.097432l1.475633-1.448804c32.714341-32.191162 48.642236-40.790079 89.208734-40.790078 40.445764 0 52.854498 6.461485 78.888245 33.438742l2.074829 2.146375c19.348681 20.032838 31.748472 30.478533 51.826026 40.526254 25.801223 12.918498 56.90131 19.335266 96.215756 19.335266 52.595144 0 83.346445-14.47462 122.513327-47.96255 1.149205-0.983755 8.750952-7.530201 10.919686-9.372507 32.897677-27.961013 56.914725-38.111581 109.563528-38.11158 34.941205 0 72.346271 9.783895 112.452193 29.915109l34.386724 17.26938 37.896944-62.665223-34.386725-17.260437c-51.137397-25.676017-101.335755-38.804681-150.349136-38.804681-74.407686 0-116.686812 17.873048-163.124541 57.339528-2.401258 2.043528-10.119266 8.688349-11.089607 9.52007-25.966672 22.1971-39.542498 28.587039-68.782393 28.58704-26.767092 0-44.930795-3.747214-58.399301-10.490411-9.994061-5.003738-16.947424-10.866026-30.697642-25.094707l-2.052472-2.124018c-18.977537-19.666166-30.116332-29.244367-48.664594-38.903057-24.186969-12.59207-53.033362-18.834445-89.195319-18.834445-36.72538 0-66.989275 7.208245-93.143755 21.329607-19.451528 10.49041-31.788716 20.855616-53.677275 42.395389l-1.475633 1.457746c-32.951336 32.423686-48.418655 40.602271-89.414428 39.2429-59.056629-5.933834-102.753258-25.166253-133.209433-57.563109zM236.065537 625.163179c-47.059284 0-85.211109 38.446952-85.211109 85.872908C150.854428 758.466515 221.362865 896 236.065537 896c14.702672 0 85.211109-137.533485 85.211109-184.963913 0-47.425956-38.151825-85.872908-85.211109-85.872908z m150.116611-76.223162c-29.311441 0-53.078079 23.949974-53.078078 53.493939 0 29.539493 43.92021 115.211179 53.078078 115.211179s53.078079-85.671686 53.078079-115.211179c0-29.543965-23.766638-53.493939-53.078079-53.493939z"  horiz-adv-x="1144" />

    
    <glyph glyph-name="zt_lajitong" unicode="&#58898;" d="M315.448104 804.257478h-7.861623a9.827029 9.827029 0 0 1 7.861623 9.827029v-9.827029h393.081158v9.827029a9.827029 9.827029 0 0 1 9.827029-9.827029h-9.827029v-92.374072h92.374072V814.084507A82.547043 82.547043 0 0 1 716.390885 895.976415H307.586481a82.547043 82.547043 0 0 1-82.547043-81.891908v-102.201101H315.448104z m647.273639-92.374072H61.255622a40.618386 40.618386 0 0 1-40.618386-40.618386v-41.273521a10.482164 10.482164 0 0 1 10.482164-10.482165h77.305961l31.446493-668.893103a81.891908 81.891908 0 0 1 81.891908-77.961096h580.449842a81.891908 81.891908 0 0 1 81.891908 77.961096l31.446493 668.893103h77.30596a10.482164 10.482164 0 0 1 10.482165 10.482165v41.273521a40.618386 40.618386 0 0 1-40.618387 40.618386z m-170.335168-747.509334H231.590791l-31.446493 655.135262h623.68877z"  horiz-adv-x="1024" />

    
    <glyph glyph-name="jiedian1" unicode="&#59047;" d="M512 896C230.4 896 0 665.6 0 384s230.4-512 512-512 512 230.4 512 512S793.6 896 512 896z m0-640c70.69184 0 128 57.30816 128 128s-57.30816 128-128 128-128-57.30816-128-128 57.30816-128 128-128z"  horiz-adv-x="1024" />

    
    <glyph glyph-name="iconfont" unicode="&#59040;" d="M714.581333 586.24m-301.226666 0a301.226667 301.226667 0 1 1 602.453333 0 301.226667 301.226667 0 1 1-602.453333 0ZM714.581333 573.44m-121.173333 0a121.173333 121.173333 0 1 1 242.346667 0 121.173333 121.173333 0 1 1-242.346667 0ZM689.493333 293.54666699999996h50.005334v-413.013334H689.493333z"  horiz-adv-x="1365" />

    
    <glyph glyph-name="baobiao" unicode="&#58949;" d="M348 357.13h259a43 43 0 0 1 0 86H348a43 43 0 0 1 0-86zM684 260.89H348a43 43 0 0 1 0-86h336a43 43 0 0 1 0 86zM838.87 662.12L698.49 807.84A77.09 77.09 0 0 1 643 831.44H206.56a43 43 0 0 1-43-43v-803.88a43 43 0 0 1 43-43h610.88a43 43 0 0 1 43 43V608.64a77.06 77.06 0 0 1-21.57 53.48zM651 746.3L753.41 640H651zM240.44 18.44V754.56H565V597a43 43 0 0 1 43-43h175.56v-535.56z"  horiz-adv-x="1024" />

    
    <glyph glyph-name="zt_yibiao" unicode="&#942673;" d="M645.750154 120.71384599999999c-52.342154-90.702769-17.132308-165.336615 55.414154-207.163077 72.585846-41.865846 154.860308-35.209846 207.163077 55.492923C960.669538 59.62830799999995 1291.027692 868.824615 1262.276923 885.405538c-28.632615 16.620308-564.224-674.028308-616.526769-764.691692zM787.692308 696.989538c33.201231 0 65.575385-2.875077 97.122461-8.192a9470.188308 9470.188308 0 0 0 106.614154 130.953847A729.757538 729.757538 0 0 1 787.692308 848.620308C362.535385 848.620308 29.420308 490.141538 29.420308 32.41353800000002c0-28.199385 1.299692-56.32 3.702154-83.771076a76.091077 76.091077 0 0 1 82.313846-68.765539 75.894154 75.894154 0 0 1 68.765538 82.274462 795.293538 795.293538 0 0 0-3.150769 70.262153c0 372.617846 266.555077 664.576 606.641231 664.576z m547.406769-94.72a9676.8 9676.8 0 0 0-63.251692-164.903384c77.115077-111.458462 122.486154-251.234462 122.486153-404.913231 0-24.024615-1.063385-48.246154-3.190153-71.68a75.894154 75.894154 0 0 1 75.618461-82.707692c38.715077 0 71.758769 29.617231 75.342769 68.923077 2.56 28.041846 3.859692 56.792615 3.859693 85.464615 0 223.744-79.753846 423.778462-210.865231 569.816615z"  horiz-adv-x="1575" />

    
    <glyph glyph-name="icon-test" unicode="&#58891;" d="M808.6 492.8c0 178.8-129.8 308.5-308.5 308.5-170.1 0-308.5-138.4-308.5-308.5 0-125.6 170.6-338.3 262.3-452.6l6.8-8.4c9.6-12 24-18.9 39.5-18.9 15.4 0 29.8 6.9 39.5 18.9l6.8 8.4c91.5 114.3 262.1 327 262.1 452.6z m-310.1-89.4c-62.9 0-114 51.1-114 114s51.1 114 114 114 114-51.1 114-114-51.1-114-114-114zM500.1 828.2c-184.9 0-335.4-150.4-335.4-335.4 0-135 174.5-352.5 268.2-469.4l6.7-8.4c14.8-18.4 36.8-29 60.4-29s45.6 10.6 60.4 29l6.8 8.4C661 140.29999999999995 835.4 357.79999999999995 835.4 492.8c0 194.3-141 335.4-335.3 335.4z m0-815.3c-15.4 0-29.8 6.9-39.5 18.9l-6.8 8.4c-91.7 114.3-262.3 327-262.3 452.6 0 170.1 138.4 308.5 308.5 308.5 178.8 0 308.5-129.8 308.5-308.5 0-125.6-170.6-338.3-262.3-452.6l-6.8-8.4c-9.5-12-23.9-18.9-39.3-18.9zM498.5 517.4m-87.2 0a87.2 87.2 0 1 1 174.4 0 87.2 87.2 0 1 1-174.4 0ZM612.5 517.4c0 62.9-51.1 114-114 114s-114-51.1-114-114 51.1-114 114-114 114 51.1 114 114z m-201.2 0c0 48.1 39.1 87.2 87.2 87.2s87.2-39.1 87.2-87.2-39.1-87.2-87.2-87.2-87.2 39.1-87.2 87.2z"  horiz-adv-x="1024" />

    
    <glyph glyph-name="lakuangxuanze_" unicode="&#58910;" d="M433.230769-128h-157.538461a39.384615 39.384615 0 0 0 0 78.769231h157.538461a39.384615 39.384615 0 0 0 0-78.769231z m-315.076923 0h-78.769231a39.384615 39.384615 0 0 0-39.384615 39.384615v78.769231a39.384615 39.384615 0 0 0 39.384615 39.384616 39.384615 39.384615 0 0 0 39.384616-39.384616v-39.384615h39.384615a39.384615 39.384615 0 0 0 0-78.769231z m-78.769231 236.307692a39.384615 39.384615 0 0 0-39.384615 39.384616v157.538461A39.384615 39.384615 0 0 0 39.384615 344.615385a39.384615 39.384615 0 0 0 39.384616-39.384616v-157.538461a39.384615 39.384615 0 0 0-39.384616-39.384616z m945.23077 315.076923a39.384615 39.384615 0 0 0-39.384616 39.384616v157.538461a39.384615 39.384615 0 0 0 78.769231 0v-157.538461a39.384615 39.384615 0 0 0-39.384615-39.384616zM39.384615 423.384615a39.384615 39.384615 0 0 0-39.384615 39.384616v157.538461A39.384615 39.384615 0 0 0 39.384615 659.692308a39.384615 39.384615 0 0 0 39.384616-39.384616v-157.538461a39.384615 39.384615 0 0 0-39.384616-39.384616z m945.23077 315.076923a39.384615 39.384615 0 0 0-39.384616 39.384616V817.230769h-39.384615a39.384615 39.384615 0 0 0-39.384616 39.384616 39.384615 39.384615 0 0 0 39.384616 39.384615h78.769231a39.384615 39.384615 0 0 0 39.384615-39.384615v-78.769231a39.384615 39.384615 0 0 0-39.384615-39.384616zM39.384615 738.461538a39.384615 39.384615 0 0 0-39.384615 39.384616v78.769231A39.384615 39.384615 0 0 0 39.384615 896h78.769231a39.384615 39.384615 0 0 0 39.384616-39.384615 39.384615 39.384615 0 0 0-39.384616-39.384616H78.769231v-39.384615a39.384615 39.384615 0 0 0-39.384616-39.384616z m708.923077 78.769231h-157.538461A39.384615 39.384615 0 0 0 551.384615 856.615385a39.384615 39.384615 0 0 0 39.384616 39.384615h157.538461a39.384615 39.384615 0 0 0 39.384616-39.384615 39.384615 39.384615 0 0 0-39.384616-39.384616z m-315.076923 0h-157.538461A39.384615 39.384615 0 0 0 236.307692 856.615385a39.384615 39.384615 0 0 0 39.384616 39.384615h157.538461a39.384615 39.384615 0 0 0 39.384616-39.384615 39.384615 39.384615 0 0 0-39.384616-39.384616zM984.615385 108.307692h-472.615385a39.384615 39.384615 0 0 0 0 78.769231h472.615385a39.384615 39.384615 0 0 0 0-78.769231zM748.307692-128a39.384615 39.384615 0 0 0-39.384615 39.384615v472.615385a39.384615 39.384615 0 0 0 78.769231 0v-472.615385a39.384615 39.384615 0 0 0-39.384616-39.384615z"  horiz-adv-x="1024" />

    
    <glyph glyph-name="famen" unicode="&#58918;" d="M292.571 548.571h179.2v-69.485h87.772V548.57h160.914V629.03c0 25.6-21.943 47.542-47.543 47.542-25.6 0-51.2-21.942-51.2-47.542H563.2c-3.657 18.285-18.286 32.914-36.571 32.914H512c-18.286 0-32.914-14.629-36.571-32.914h-76.8c-3.658 25.6-25.6 47.542-51.2 47.542-29.258 0-54.858-25.6-54.858-54.857v-73.143z m548.572-157.257c-47.543 0-91.429-25.6-113.372-62.171h-84.114c-10.971 18.286-25.6 36.571-40.228 47.543v62.171H427.886v-62.171c-18.286-14.629-29.257-29.257-40.229-47.543h-98.743c-21.943 36.571-62.171 62.171-106.057 62.171 3.657-3.657 0-270.628 0-270.628 29.257 0 58.514 10.971 80.457 32.914H398.63c25.6-36.571 69.485-62.171 117.028-62.171 47.543 0 91.429 25.6 117.029 62.171h124.343c21.942-18.286 51.2-25.6 80.457-25.6 3.657 0 0 263.314 3.657 263.314zM468.114 164.571l-25.6 25.6m157.257 3.658l-25.6-29.258"  horiz-adv-x="1024" />

    
    <glyph glyph-name="guanbi" unicode="&#58968;" d="M591.53 384.256l416.342 416.768a54.613 54.613 0 0 1 0 76.8l-2.304 2.304a54.443 54.443 0 0 1-76.63 0L512.513 462.763 96.256 880.043a54.443 54.443 0 0 1-76.63 0l-2.389-2.134a53.59 53.59 0 0 1 0-76.8l416.427-416.768L17.237-32.512a54.613 54.613 0 0 1 0-76.8l2.304-2.219a54.443 54.443 0 0 1 76.63 0l416.426 416.854 416.342-416.854a54.443 54.443 0 0 1 76.629 0l2.304 2.304a54.613 54.613 0 0 1 0 76.8L591.445 384.341z"  horiz-adv-x="1024" />

    
    <glyph glyph-name="tuli" unicode="&#58888;" d="M837.818 875.334c237.196 0 434.176-177.06 472.157-409.414h365.661v-163.84h-365.66c-37.982-232.355-234.962-409.414-472.158-409.414S403.642 69.726 365.661 302.08H0V465.92h365.661C403.642 698.275 600.623 875.334 837.818 875.334z m0-300.311c66.56 0 128-36.306 161.234-95.512a195.49 195.49 0 0 0 0-191.022 185.344 185.344 0 0 0-161.234-95.512c-102.865 0-186.182 85.458-186.182 191.023s83.317 191.023 186.182 191.023z m276.48-27.276a317.812 317.812 0 0 1-276.48 163.933c-157.696 0-288.582-117.295-314.554-271.546l-1.117-7.447-0.372-2.235-0.652-4.654-1.396-14.522a238.033 238.033 0 0 1-0.745-10.706l0.186 2.048-0.186-3.072-0.093-3.351-0.28-14.522a336.71 336.71 0 0 1 5.679-59.206l1.21-6.237 2.327-10.52 0.094-0.465 4.654-17.036C572.51 154.065 694.086 56.32 837.818 56.32c114.037 0 219.415 62.464 276.48 163.84a334.229 334.229 0 0 1 39.47 117.108l1.21 10.613 0.746 6.61 0.279 3.909 0.28 4.375 0.372 6.889 0.279 6.796v5.12l-0.093 10.147 0.186-4.096-0.28 10.519-0.186 2.234v2.048l-0.465 6.982-0.28 1.675-0.837 8.751 0.372-2.979-0.186 2.979-0.745 5.492v0.28l-0.558 4.654 0.372-3.91-3.072 20.108a332.614 332.614 0 0 1-36.957 101.19z"  horiz-adv-x="1675" />

    
    <glyph glyph-name="famen1" unicode="&#58970;" d="M511.650982 668.596115V782.315148H170.562245A56.842426 56.842426 0 1 0 170.562245 896h795.862325a56.842426 56.842426 0 1 0 0-113.684852H625.506737v-113.719033h56.842426a56.876607 56.876607 0 0 0 56.876607-56.842426v-170.561458h66.51555a170.595639 170.595639 0 0 0 331.552335-56.842426v-341.088737a170.527278 170.527278 0 0 0-331.552335-56.842426H331.553121a170.62982 170.62982 0 0 0-331.552335 56.842426v341.088737a170.561459 170.561459 0 0 0 331.552335 56.842426h66.48137v170.561458a56.876607 56.876607 0 0 0 56.876607 56.842426z m-56.842426-341.088736H341.089523v-227.403885h454.807769v227.403885z m-227.403885 56.842426a56.876607 56.876607 0 0 1-113.719033 0v-341.088737a56.876607 56.876607 0 0 1 113.719033 0z m682.177473-341.088737a56.876607 56.876607 0 0 1 113.719033 0v341.088737a56.876607 56.876607 0 0 1-113.719033 0zM511.650982 441.192231H625.506737V554.911263h-113.855755z m0 0"  horiz-adv-x="1137" />

    
    <glyph glyph-name="poumian" unicode="&#59219;" d="M1024 539.584V890.88l-301.888-10.24-174.208-177.92L292.544 896 0 627.904V-128h1024V539.584zM59.712 601.024l236.48 216.64L553.792 622.72l194.048 198.208 216.448 7.36v-293.696l-242.112-20.48-183.168-186.496-245.696 172.992-233.6-183.36V601.024z"  horiz-adv-x="1024" />

    
    <glyph glyph-name="liuliang1" unicode="&#58893;" d="M467.691789 857.250553c13.276273 46.412986 79.981448 43.714557 89.47992-3.669864L664.893011 314.650364l126.718247 316.687678c16.622325 41.447876 76.635396 37.4542 87.429113-5.936545L916.386634 476.124381h148.305682c25.473174 0 46.089175-20.616001 46.089174-46.089175s-20.616001-46.089175-46.089174-46.089175H880.443554c-21.155687 0-39.505007 14.355645-44.685991 34.863709l-11.549278 46.089174-131.359545-328.236956c-17.054074-42.527248-78.902077-36.806577-87.968799 8.095289L504.066617 649.255613 372.05945 187.176557c-11.549278-40.368504-66.705176-45.549489-85.486245-7.987351L207.23938 337.964794H51.486034C26.01286 337.964794 5.396859 358.580795 5.396859 384.053969s20.616001 46.089175 46.089175 46.089174h184.248761c17.485823 0 33.352588-9.822283 41.232002-25.473174l39.181195-78.36239L467.691789 857.250553z m596.89259-887.675345c25.473174 0 46.089175-20.616001 46.089174-46.089174s-20.616001-46.089175-46.089174-46.089175H51.486034C26.01286-122.603141 5.396859-101.98714 5.396859-76.513966s20.616001 46.089175 46.089175 46.089174h1013.098345z"  horiz-adv-x="1116" />

    
    <glyph glyph-name="duibi" unicode="&#59658;" d="M320 640h-128c-17.6 0-32-14.4-32-32v-448c0-17.6 14.4-32 32-32h128c17.6 0 32 14.4 32 32V608c0 17.6-14.4 32-32 32z m0 64c52.8 0 96-43.2 96-96v-448c0-52.8-43.2-96-96-96h-128c-52.8 0-96 43.2-96 96V608c0 52.8 43.2 96 96 96h128zM832 640h-128c-17.6 0-32-14.4-32-32v-448c0-17.6 14.4-32 32-32h128c17.6 0 32 14.4 32 32V608c0 17.6-14.4 32-32 32z m0 64c52.8 0 96-43.2 96-96v-448c0-52.8-43.2-96-96-96h-128c-52.8 0-96 43.2-96 96V608c0 52.8 43.2 96 96 96h128z"  horiz-adv-x="1024" />

    
    <glyph glyph-name="jisuanqi" unicode="&#58890;" d="M872.53504 896l-704 0c-70.4 0-128-57.6-128-128l0-768c0-70.4 57.6-128 128-128l704 0c70.4 0 128 57.6 128 128L1000.53504 768C1000.53504 838.4 942.93504 896 872.53504 896zM936.53504 0c0-35.2-28.8-64-64-64l-704 0c-35.2 0-64 28.8-64 64L104.53504 640l832 0L936.53504 0zM936.53504 704l-832 0L104.53504 768c0 35.2 28.8 64 64 64l704 0c35.2 0 64-28.8 64-64L936.53504 704zM776.53504 320c52.80256 0 96 43.20256 96 96 0 52.79744-43.20256 96-96 96s-96-43.20256-96-96C680.53504 363.19744 723.73248 320 776.53504 320zM808.53504 416c0-17.67424-14.33088-32-32-32-17.67936 0-32 14.32576-32 32s14.32064 32 32 32C794.20416 448 808.53504 433.67424 808.53504 416zM520.53504 320c52.80256 0 96 43.20256 96 96 0 52.79744-43.20256 96-96 96-52.79744 0-96-43.20256-96-96C424.53504 363.19744 467.73248 320 520.53504 320zM552.53504 416c0-17.67424-14.33088-32-32-32-17.67936 0-32 14.32576-32 32s14.32064 32 32 32C538.20416 448 552.53504 433.67424 552.53504 416zM264.53504 320c52.80256 0 96 43.20256 96 96 0 52.79744-43.20256 96-96 96s-96-43.20256-96-96C168.53504 363.19744 211.73248 320 264.53504 320zM296.53504 416c0-17.67424-14.33088-32-32-32-17.67936 0-32 14.32576-32 32s14.32064 32 32 32C282.20416 448 296.53504 433.67424 296.53504 416zM776.53504 62.28992c52.80256 0 96 43.20256 96 96s-43.20256 96-96 96-96-43.20256-96-96S723.73248 62.28992 776.53504 62.28992zM808.53504 158.28992c0-17.67424-14.33088-32-32-32-17.67936 0-32 14.32576-32 32 0 17.66912 14.32064 32 32 32C794.20416 190.28992 808.53504 175.95904 808.53504 158.28992zM520.53504 62.28992c52.80256 0 96 43.20256 96 96s-43.20256 96-96 96c-52.79744 0-96-43.20256-96-96S467.73248 62.28992 520.53504 62.28992zM552.53504 158.28992c0-17.67424-14.33088-32-32-32-17.67936 0-32 14.32576-32 32 0 17.66912 14.32064 32 32 32C538.20416 190.28992 552.53504 175.95904 552.53504 158.28992zM264.53504 62.28992c52.80256 0 96 43.20256 96 96s-43.20256 96-96 96-96-43.20256-96-96S211.73248 62.28992 264.53504 62.28992zM296.53504 158.28992c0-17.67424-14.33088-32-32-32-17.67936 0-32 14.32576-32 32 0 17.66912 14.32064 32 32 32C282.20416 190.28992 296.53504 175.95904 296.53504 158.28992z"  horiz-adv-x="1024" />

    
    <glyph glyph-name="shijian" unicode="&#58939;" d="M510.208 831.424A477.632 477.632 0 0 1 32.64 353.792a477.632 477.632 0 0 1 477.632-477.632 477.632 477.632 0 0 1 477.632 477.632A477.632 477.632 0 0 1 510.208 831.36z m0-891.648a414.08 414.08 0 0 0 0 828.032 414.08 414.08 0 0 0 0-828.032z m207.04 382.208h-207.04V528.96a16 16 0 0 1-15.872 15.936h-31.872a16 16 0 0 1-15.872-15.936v-254.72a16 16 0 0 1 15.872-15.936h254.72a16 16 0 0 1 16 15.936v31.808a15.872 15.872 0 0 1-16 15.936z"  horiz-adv-x="1024" />

    
    <glyph glyph-name="bofang" unicode="&#58938;" d="M103.808 790.528v-815.36l611.584 407.552L103.808 790.528z m0 0M154.752 790.528v-815.36l611.584 407.552L154.752 790.528z m0 0M260.224 876.8v-814.848L876.928 465.408 260.224 876.8z m0 0M261.76 704l-1.536-814.848 613.12 407.04L261.76 704z m0 0M103.808 790.528c0-36.352 19.456-70.144 50.944-88.32s70.4-18.176 101.888 0a102.144 102.144 0 0 1 50.944 88.32c0 36.352-19.456 70.144-50.944 88.32a102.016 102.016 0 0 1-101.888 0A102.144 102.144 0 0 1 103.808 790.528z m0 0M817.28 484.864c-56.064 0-101.888-45.824-101.888-101.888s45.824-99.84 101.888-101.888c57.6-2.048 102.4 44.8 101.888 101.888-0.512 56.064-45.824 101.888-101.888 101.888zM205.696 77.056A102.144 102.144 0 0 1 103.808-24.832c0-56.064 45.824-99.84 101.888-101.888 53.504-2.048 100.352 44.8 101.888 101.888 1.536 56.064-45.824 101.888-101.888 101.888z m0 0"  horiz-adv-x="1024" />

    
    <glyph glyph-name="zantingtingzhi" unicode="&#58896;" d="M735.9 831.1c-51.2 0-96-44.7-96-95.8v-702.6c0-51.1 44.8-95.8 96-95.8s96 44.7 96 95.8V735.3c0 51.1-44.8 95.8-96 95.8z m-447.8 0c-51.2 0-96-44.7-96-95.8v-702.6c0-51.1 44.8-95.8 96-95.8s96 44.7 96 95.8V735.3c-0.1 51.1-44.9 95.8-96 95.8z"  horiz-adv-x="1024" />

    
    <glyph glyph-name="gou" unicode="&#58990;" d="M422.326655 67.506742c-13.301957-12.913101-34.860972-12.913101-48.130184 0l-10.66899 10.412141-0.062422 0-11.311627 11.118222-50.123584 48.801473c-0.191358 0.193405-0.095167 0.452301-0.286526 0.645706L72.366168 363.616764c-13.301957 12.950963-13.301957 33.930787 0 46.911426l72.166623 70.299089c13.269211 12.947893 34.825157 12.947893 48.095391 0l205.92093-202.066135 432.78996 421.706531c13.301957 12.947893 34.828226 12.947893 48.13223 0l72.161506-70.331835c13.301957-12.950963 13.301957-33.930787 0-46.87868L422.326655 67.506742 422.326655 67.506742z"  horiz-adv-x="1024" />

    
    <glyph glyph-name="fanweixuanze-filled" unicode="&#59453;" d="M1024 640V896h-256v-96H256V896H0v-256h96v-512H0v-256h256v96h512V-128h256v256h-96V640H1024z m-160-512H768v-96H256V128H160V640H256V736h512V640h96v-512z"  horiz-adv-x="1024" />

    
    <glyph glyph-name="jiedian" unicode="&#58927;" d="M512 384m-325.818182 0a325.818182 325.818182 0 1 1 651.636364 0 325.818182 325.818182 0 1 1-651.636364 0ZM512 384m-139.636364 0a139.636364 139.636364 0 1 1 279.272728 0 139.636364 139.636364 0 1 1-279.272728 0Z"  horiz-adv-x="1024" />

    
    <glyph glyph-name="zhongyu1" unicode="&#59031;" d="M940.5 435.6c-12.9 30.3-31.4 57.6-55 80.9-23.5 23.3-50.9 41.6-81.4 54.4-30.4 12.8-62.6 19.5-95.8 19.9-3.3 12.5-7.5 24.9-12.6 36.9-13.6 31.8-33 60.4-57.7 84.9-24.7 24.5-53.4 43.7-85.4 57.1-33.1 13.9-68.3 20.9-104.4 20.9s-71.3-7-104.4-20.9c-32-13.4-60.7-32.6-85.4-57.1-24.7-24.5-44.1-53.1-57.7-84.9-14.1-33-21.2-68.1-21.2-104.2 0-6.9 0.3-13.8 0.8-20.7-22.7-12.2-43.3-28.2-60.9-47.7-37.3-41.1-57.8-94.2-57.8-149.4 0-30.2 6-59.7 17.9-87.4 11.4-26.6 27.7-50.6 48.4-71.1 20.7-20.5 44.7-36.6 71.5-47.9 15.7-6.6 32-11.4 48.7-14.3l38.2 72.7c-81.9 0.3-148.8 66.8-148.8 148 0 75.5 57.8 138.1 131.6 146.9-8.8 21.9-13.8 45.8-13.8 70.9 0 105.6 86.3 191.1 192.8 191.1S641 629 641 523.5c0-7-0.4-14-1.2-20.8 20.2 7.7 42 12.1 64.9 12.1 99.5 0 180.1-79.9 180.1-178.6 0-92.7-71.2-168.8-162.3-177.7-5.3-0.6-10.6-0.9-16-0.9h-5l-40-76h45c7.7 0 15.6 0.4 23.7 1.3 62.8 6.2 120.9 35.1 163.6 81.6 43.3 47 67.1 108 67.1 171.7-0.1 34.4-7 67.9-20.4 99.4zM511.2-24.1c-6 0-12.1 1.4-17.8 4.5-18.5 9.9-25.5 32.9-15.7 51.4l19.5 36.6c9.9 18.5 32.9 25.5 51.4 15.7 18.5-9.9 25.5-32.9 15.7-51.4l-19.5-36.6c-6.9-12.9-20-20.2-33.6-20.2z m83 145.3c-6 0-12.1 1.4-17.8 4.5-18.5 9.9-25.5 32.9-15.7 51.4l19.5 36.6c9.9 18.5 32.9 25.5 51.4 15.7 18.5-9.9 25.5-32.9 15.7-51.4l-19.5-36.6c-6.9-12.9-20-20.2-33.6-20.2zM325.7-24.1c-6 0-12.1 1.4-17.8 4.5-18.5 9.9-25.5 32.9-15.7 51.4l19.5 36.6c9.9 18.5 32.9 25.5 51.4 15.7 18.5-9.9 25.5-32.9 15.7-51.4l-19.5-36.6c-6.9-12.9-20-20.2-33.6-20.2z m83 145.3c-6 0-12.1 1.4-17.8 4.5-18.5 9.9-25.5 32.9-15.7 51.4l19.5 36.6c9.9 18.5 32.9 25.5 51.4 15.7 18.5-9.9 25.5-32.9 15.7-51.4l-19.5-36.6c-6.9-12.9-20-20.2-33.6-20.2zM599.1 473c-10.8 0-21.6 4.6-29.1 13.5-13.5 16-11.5 40 4.5 53.5 38.6 32.5 87.6 50.4 138.2 50.4 21 0 38-17 38-38s-17-38-38-38c-32.6 0-64.3-11.6-89.2-32.5-7.1-6-15.8-8.9-24.4-8.9z"  horiz-adv-x="1024" />

    
    <glyph glyph-name="baoyu" unicode="&#58967;" d="M998.3 416.7c0 85.9-55.8 162.2-135.5 189.7 1.1 9.5 2.2 20.2 2.2 28.2 0 134.9-109.7 244.6-244.4 244.6-85.5 0-164.4-45-208.4-116.9-27.2 18.4-59.3 28.3-92.8 28.3-91.8 0-166.4-74.6-166.4-166.4 0-9.9 0.9-19.7 2.6-29.3C77.3 566.1 24.5 492.4 24.5 407c0-109 86.3-190.5 200.7-190.5h572.3c110.7 0 200.8 89.4 200.8 200.2z m-200.8-150H225.2c-87.4 0-153.3 59.7-153.3 141.6 0 71.4 48.4 131.8 117.7 148.3 6.5 1.5 12 5.2 15.3 11.1 3.2 5.8 3.9 12.5 1.7 18.8-4.1 12.2-6.2 24.8-6.2 37.8 0 65.5 53.3 118.8 118.8 118.8 31.5 0 61.1-12.3 83.5-34.4 5.5-5.5 13.4-7.9 21-6.5 7.6 1.4 14.1 6.4 17.3 13.5 31.9 70.4 102.3 115.8 179.4 115.8 108.6 0 197-88.4 197-197.1 0-11.8-3.5-36-4.4-41.8-0.2-1.2-0.3-2.6-0.3-3.9 0-11.5 8.3-21.3 19.4-23.3 68.8-15.9 118.7-76.5 118.7-147.4 0-84.5-68.8-151.3-153.3-151.3zM236.9-54.2c0-31.3 25.4-56.8 56.7-56.8 31.3 0 56.7 25.4 56.7 56.8 0 0-2.2 57.5-56.7 112-54.5-54.5-56.7-112-56.7-112z m437.7-0.1c0-31.3 25.4-56.7 56.7-56.7 31.3 0 56.7 25.4 56.7 56.7 0 0-2.2 57.5-56.7 112.1-54.5-54.6-56.7-112.1-56.7-112.1zM28.3 15.4c0-31.3 25.4-56.8 56.7-56.8 31.3 0 56.7 25.4 56.7 56.8 0 0-2.2 57.5-56.7 112-54.6-54.6-56.7-112-56.7-112z m437.6-0.1c0-31.3 25.4-56.7 56.7-56.7 31.3 0 56.7 25.4 56.7 56.7 0 0-2.2 57.5-56.7 112.1-54.5-54.6-56.7-112.1-56.7-112.1z m417.4 0c0-31.3 25.4-56.7 56.7-56.7 31.3 0 56.7 25.4 56.7 56.7 0 0-2.2 57.5-56.7 112.1-54.5-54.6-56.7-112.1-56.7-112.1z m0 0"  horiz-adv-x="1024" />

    
    <glyph glyph-name="xiaoyu1" unicode="&#58906;" d="M813.056 610.167467C785.237333 753.527467 660.821333 861.866667 511.965867 861.866667c-148.923733 0-273.271467-108.3392-301.090134-251.6992C106.666667 581.256533 34.133333 485.137067 34.133333 375.125333c0-134.485333 106.9056-243.370667 238.933334-243.370666h477.7984c107.997867 0 202.922667 73.864533 230.741333 180.0192 34.338133 130.013867-41.472 263.3728-168.5504 298.3936z m-62.190933-408.9856H273.032533c-94.344533 0-170.7008 77.824-170.7008 173.943466 0 96.119467 76.356267 173.909333 170.7008 173.909334 0 134.485333 106.9056 243.370667 238.933334 243.370666 131.9936 0 238.8992-108.885333 238.8992-243.370666 94.344533 0 170.734933-77.824 170.734933-173.909334-0.546133-96.1536-76.9024-173.943467-170.734933-173.943466z m-302.762667-225.621334c0-38.2976 28.398933-69.4272 63.829333-69.4272 34.9184 0 63.829333 31.1296 63.829334 69.461334 0 25.565867-21.265067 60.0064-63.829334 103.901866-42.530133-43.895467-63.829333-78.336-63.829333-103.901866z"  horiz-adv-x="1024" />

    
    <glyph glyph-name="dayu1" unicode="&#58901;" d="M245.162667 626.261333C267.989333 758.826667 383.552 859.733333 522.666667 859.733333c124.693333 0 231.658667-81.408 268.202666-195.52 88.96-24.874667 154.197333-106.517333 154.197334-203.413333 0-116.650667-94.549333-211.2-211.2-211.2H288a187.733333 187.733333 0 0 0-187.733333 187.733333c0 86.058667 58.026667 158.933333 138.346666 180.949334l5.504 1.429333 1.045334 6.549333zM522.666667 789.333333c-116.650667 0-211.2-94.549333-211.2-211.2 0-7.936 0.426667-15.786667 1.28-23.466666H288l-4.714667-0.085334A117.333333 117.333333 0 0 1 288 320h445.866667a140.8 140.8 0 0 1 4.949333 281.514667l-6.229333 0.064C720.917333 707.178667 631.381333 789.333333 522.666667 789.333333zM490.666667 21.333333c28.458667-7.616 58.048 10.581333 66.112 40.661334 5.376 20.053333-2.432 56.277333-23.445334 108.672-47.68-33.984-74.218667-61.013333-79.573333-81.066667-8.064-30.08 8.448-60.650667 36.906667-68.266667zM362.666667-106.666667c28.458667-7.616 58.048 10.581333 66.112 40.661334 5.376 20.053333-2.432 56.277333-23.445334 108.672-47.68-33.984-74.218667-61.013333-79.573333-81.066667-8.064-30.08 8.448-60.650667 36.906667-68.266667zM597.333333-106.666667c28.458667-7.616 58.048 10.581333 66.112 40.661334 5.376 20.053333-2.432 56.277333-23.445333 108.672-47.68-33.984-74.218667-61.013333-79.573333-81.066667-8.064-30.08 8.448-60.650667 36.906666-68.266667zM725.333333 21.333333c28.458667-7.616 58.048 10.581333 66.112 40.661334 5.376 20.053333-2.432 56.277333-23.445333 108.672-47.68-33.984-74.218667-61.013333-79.573333-81.066667-8.064-30.08 8.448-60.650667 36.906666-68.266667zM256 21.333333c28.458667-7.616 58.048 10.581333 66.112 40.661334 5.376 20.053333-2.432 56.277333-23.445333 108.672-47.68-33.984-74.218667-61.013333-79.573334-81.066667-8.064-30.08 8.448-60.650667 36.906667-68.266667z"  horiz-adv-x="1024" />

    
    <glyph glyph-name="tubiao" unicode="&#58902;" d="M654.189714 317.293714H369.810286c-14.628571 0-26.916571-11.702857-26.916572-26.916571 0-14.628571 11.702857-26.916571 26.916572-26.916572h284.379428c14.628571 0 26.916571 11.702857 26.916572 26.916572a26.843429 26.843429 0 0 1-26.916572 26.916571z m88.941715 356.937143H280.868571c-14.628571 0-26.916571-11.702857-26.916571-26.916571 0-14.628571 11.702857-26.916571 26.916571-26.916572h462.848c14.628571 0 26.916571 11.702857 26.916572 26.916572a27.794286 27.794286 0 0 1-27.501714 26.916571z m0-178.468571H280.868571c-14.628571 0-26.916571-11.702857-26.916571-26.916572 0-14.628571 11.702857-26.916571 26.916571-26.916571h462.848c14.628571 0 26.916571 11.702857 26.916572 26.916571a27.355429 27.355429 0 0 1-27.501714 26.916572zM853.723429 866.157714h-684.617143A139.629714 139.629714 0 0 1 29.842286 726.893714v-684.617143a139.702857 139.702857 0 0 1 139.264-139.849142h684.617143a139.849143 139.849143 0 0 1 139.849142 139.849142v684.617143c0.585143 76.653714-62.610286 139.264-139.849142 139.264z m86.601142-823.881143c0-47.396571-38.619429-86.601143-86.601142-86.601142h-684.617143a86.308571 86.308571 0 0 0-86.016 86.601142V264.045714h72.557714l204.214857-179.053714h304.274286l201.874286 178.468571h74.313142v-221.184z m0 275.017143H845.531429l-201.874286-178.468571H379.757714l-203.629714 178.468571H83.675429v409.6c0 47.396571 38.619429 86.016 86.016 86.016h684.617142c47.396571 0 86.601143-38.619429 86.601143-86.016v-409.6h-0.585143z"  horiz-adv-x="1024" />

    
    <glyph glyph-name="bianji" unicode="&#59420;" d="M913.001 745.26l-48.429 39.318c-35.203 35.203-74.815-9.197-74.815-9.197l-32.81-42.249 132.449-105.18 32.807 42.249s18.502 47.354-9.202 75.059z m-137.069-89.19l-51.575 48.388-319.45-397.952v-159.313l159.374 39.702 294.647 398.258-52.817 39.284L523.546 241.49l-49.427-17.43 1.099 52.475L775.932 656.07z m37.522-235.798l-0.17-408.161-650.509-0.258 0.506 620.044 419.182-1.057 59.734 71.504H96.24V-55.69h777.802l-0.288 548.151-60.3-72.189z"  horiz-adv-x="1024" />

    
    <glyph glyph-name="shanchu" unicode="&#58926;" d="M802.133 768H221.867c-51.2 0-93.867-42.667-93.867-93.867V640h768v34.133c0 51.2-42.667 93.867-93.867 93.867M631.467 827.733l17.066-102.4H375.467l17.066 102.4h238.934M640 896H384c-25.6 0-51.2-25.6-51.2-51.2l-25.6-128c0-25.6 17.067-51.2 42.667-51.2h324.266c25.6 0 42.667 25.6 42.667 51.2l-25.6 128C691.2 870.4 665.6 896 640 896m179.2-324.267H204.8c-34.133 0-59.733-25.6-51.2-59.733l51.2-580.267c0-34.133 34.133-59.733 68.267-59.733h477.866c34.134 0 68.267 25.6 68.267 59.733L870.4 512c8.533 34.133-17.067 59.733-51.2 59.733M384 0h-93.867L256 443.733h128V0z m196.267 0H443.733V443.733h128V0z m153.6 0H640V443.733h128L733.867 0z m0 0"  horiz-adv-x="1024" />

    
    <glyph glyph-name="xiala" unicode="&#58907;" d="M919.8 498.9L555.2 100.2a57.377 57.377 0 0 0-43.1-19.5c-16.5 0-32.2 7.1-43.1 19.5L104.4 498.9c-17.8 18.8-23.3 46.2-14.1 70.4s31.4 41.1 57.2 43.4h728.9c25.9-2.2 48.2-19 57.4-43.3 9.3-24.3 3.8-51.6-14-70.5z"  horiz-adv-x="1024" />

    
    <glyph glyph-name="xiala1" unicode="&#58971;" d="M560.64-61.952c-13.824-13.824-32.256-26.112-50.176-23.04-17.92-3.072-34.304 10.752-48.128 23.04L37.888 363.52c-22.016 22.016-22.016 56.32 0 78.336s56.32 22.016 78.336 0l394.752-405.504 396.288 404.992c22.016 22.016 56.32 22.016 78.336 0s22.016-56.32 0-78.336l-424.96-424.96zM560.64 332.8c-13.824-13.824-32.256-26.112-50.176-23.04-17.92-3.072-34.304 10.752-48.128 23.04L37.888 758.272c-22.016 22.016-22.016 56.32 0 78.336s56.32 22.016 78.336 0l394.752-405.504L907.264 836.096c22.016 22.016 56.32 22.016 78.336 0s22.016-56.32 0-78.336L560.64 332.8z"  horiz-adv-x="1024" />

    
    <glyph glyph-name="dropdown" unicode="&#58885;" d="M463.36 829.952c13.824 13.824 32.25599999 26.112 50.176 23.04 17.92 3.072 34.304-10.752 48.128-23.04000001L986.112 404.48c22.016-22.016 22.016-56.32 0-78.336-22.016-22.016-56.32-22.016-78.336 0l-394.752 405.504-396.288-404.992c-22.016-22.016-56.32-22.016-78.336 0-22.016 22.016-22.016 56.32 0 78.336l424.96 424.96zM463.36 435.2c13.824 13.824 32.25599999 26.112 50.176 23.04 17.92 3.072 34.304-10.752 48.128-23.04L986.112 9.727999999999952c22.016-22.016 22.016-56.32 0-78.336-22.016-22.016-56.32-22.016-78.336 0l-394.75200001 405.504-396.28799999-404.992c-22.016-22.016-56.32-22.016-78.336 0-22.016 22.016-22.016 56.32 0 78.33599999l424.96 424.96000001z"  horiz-adv-x="1024" />

    
    <glyph glyph-name="ercishuibengfang" unicode="&#59129;" d="M412.685575-3.833049s-140.499941 4.705162-261.673721 122.558313C48.915571 229.865527 39.960619 323.488835 39.960619 323.488835a397.987317 397.987317 0 0 0-4.834099 61.764715c0 216.341257 175.989223 392.356063 392.331503 392.356063 4.926196 0 10.079566-0.113587 15.770172-0.338715 3.25309 0.225127 6.144954 0.338714 8.901741 0.338715h407.152047c71.485101 0 129.590474-58.130955 129.590473-129.565915v-74.01062c0-71.435982-58.104349-129.543402-129.590473-129.543402h-43.915186c2.980891-19.563568 4.424776-39.399335 4.424776-59.235103 0-103.109356-39.671535-200.526059-111.737873-274.223548-71.526033-73.197092-167.090553-108.599394-269.208325-111.538329-8.630564-1.762133-17.438161-3.325745-26.1598-3.325745z m6.28617 39.141462c6.429433 0 23.050995 0.511653 23.050996 0.511653 185.027064 4.461615 335.233064 172.435281 335.233064 357.591281 0 24.056905-2.493797 48.113811-7.480369 71.559803l-4.546549 21.608133h86.080517c49.429783 0 89.582271 40.154535 89.582271 89.583295v71.647807c0 49.428759-40.152489 89.583295-89.582271 89.583294H457.157439c-2.056845 0-4.28663-0.086981-6.955412-0.26299l-1.049912-0.086981h-1.092891a298.096259 298.096259 0 0 1-14.785751 0.350994c-189.703573 0-353.61983-154.319691-353.61983-343.981308 0-24.799826-1.200338-49.6457 4.093225-73.877591l9.494235-30.474059s16.658402-94.429673 109.215423-173.683714c102.529141-80.914868 216.515219-80.069617 216.515219-80.069617zM426.557514 680.398594c-55.125505-13.104459-96.786347-71.844282-96.786347-142.330636s41.660842-129.226177 96.786347-142.420687V680.398594zM711.30679 389.953595c-13.147438 55.17053-71.88726 96.783277-142.373615 96.783277-70.535473 0-129.274272-41.657772-142.375661-96.783277h284.749276zM141.806191 389.953595c13.149485-55.169507 71.888284-96.740298 142.375662-96.740298 70.532403 0 129.271202 41.570791 142.375661 96.740298H141.806191zM426.557514 105.203296c55.124482 13.150508 96.782254 71.889307 96.782254 142.375661 0 70.488401-41.657772 129.272225-96.782254 142.375662v-284.751323zM426.400948-8.368342c-216.341257 0-392.379599 176.036295-392.379598 392.378575 0 216.34228 176.038342 392.358109 392.379598 392.358109 216.34228 0 392.378575-176.016853 392.378575-392.358109 0-216.34228-176.036295-392.378575-392.378575-392.378575z m-0.001023 735.438908c-189.148941 0-343.049077-153.900136-343.049077-343.093079 0-189.146894 153.901159-343.0501 343.049077-343.0501S769.449002 194.830593 769.449002 383.977487c0 189.193966-153.901159 343.093079-343.049077 343.093079z"  horiz-adv-x="1024" />

    
    <glyph glyph-name="guandao" unicode="&#58884;" d="M398.992 370.967s0-79.066 54.567-79.066h271.369v-343.442s-462.189-1.322-570.299 0-96.905 144.246-96.905 144.246V601.023h341.268zM0.463 896h510.925v-192.006H0.463z m827.769-512h195.305v-512H828.232z"  horiz-adv-x="1024" />

    
    <glyph glyph-name="yali" unicode="&#59115;" d="M512 834C263.6 834 62 632.4 62 384s201.6-450 450-450 450 201.6 450 450S760.4 834 512 834z m34.2-500.4c-0.9-34.65-28.8-62.1-63.45-62.1-28.8 0-54 18.9-61.65 46.35-9.45 33.75 10.35 68.85 44.1 78.3L606.5 497.4l-60.3-163.8z m218.25-235.35c-8.1-7.65-18.9-11.7-29.7-11.7h-1.35c-24.3 0.9-43.2 21.15-42.3 45.45 0.45 11.7 5.4 22.5 13.95 30.6 57.15 53.55 89.55 128.25 90 206.55 0.45 156.15-126 283.5-282.6 283.5-156.15-0.45-282.6-126.9-282.6-283.05 0-78.3 32.85-153.45 90-207 15.75-16.2 16.65-41.4 2.25-58.5-15.75-18.45-43.2-21.15-61.65-5.4-74.7 69.75-117.9 168.75-117.9 270.9C142.1 573.45 308.15 739.5 512 739.5c204.3 0 370.35-166.05 370.35-370.35-0.45-102.6-43.2-200.7-117.9-270.9z"  horiz-adv-x="1024" />

    
    <glyph glyph-name="yulv" unicode="&#58883;" d="M681.84615406 354.46153875000005c14.76923062 22.15384594 22.15384594 36.92307656 36.92307657 51.69230719 14.76923062 29.53846125 0 59.07692344-22.15384594 73.84615406-29.53846125 14.76923062-59.07692344 0-73.84615407-22.15384594-22.15384594-29.53846125-51.69230812-59.07692344-81.23076937-81.23076937-96-44.30769188-214.15384594-14.76923062-265.84615313 81.23076937-44.30769188 96-14.76923062 214.15384594 81.23076844 265.84615406S571.07692344 738.46153875 615.38461531 642.46153875c14.76923062-29.53846125 51.69230812-36.92307656 73.84615407-22.15384687 29.53846125 14.76923062 36.92307656 51.69230812 22.15384593 73.84615406-7.38461531 22.15384594-14.76923062 36.92307656-29.53846125 51.69230812C578.46153875 878.76923062 386.46153875 893.53846125 253.53846125 790.15384594s-147.69230813-302.76923062-36.92307656-435.69230719h465.23076937zM696.61538469 192c0 29.53846125-22.15384594 59.07692344-51.69230813 59.07692344H91.07692344c-29.53846125 0-51.69230812-22.15384594-51.69230813-59.07692344 0-29.53846125 22.15384594-59.07692344 51.69230813-59.07692344h553.84615312c29.53846125 0 51.69230812 29.53846125 51.69230813 59.07692344z m162.46153875 162.46153875c29.53846125 0 51.69230812 22.15384594 51.69230718 51.69230719V804.92307656c0 29.53846125-22.15384594 51.69230812-51.69230718 51.69230813-29.53846125 0-51.69230812-22.15384594-51.69230813-51.69230813v-391.38461531c0-29.53846125 22.15384594-59.07692344 51.69230813-59.0769225z m-546.46153875-332.30769281H201.84615406c-29.53846125 0-51.69230812-22.15384594-51.69230812-59.0769225 0-29.53846125 22.15384594-59.07692344 51.69230812-59.07692344h110.76923063c29.53846125 0 51.69230812 22.15384594 51.69230719 59.07692344s-22.15384594 59.07692344-51.69230719 59.0769225z m657.23076937 0h-443.07692343c-29.53846125 0-51.69230812-22.15384594-51.69230719-59.0769225 0-29.53846125 22.15384594-59.07692344 51.69230719-59.07692344h443.07692343c29.53846125 0 51.69230812 22.15384594 51.69230719 59.07692344 7.38461531 36.92307656-22.15384594 59.07692344-51.69230719 59.0769225z m110.76923063 221.53846218h-221.53846125c-29.53846125 0-51.69230812-22.15384594-51.69230813-59.07692343 0-29.53846125 22.15384594-59.07692344 51.69230813-59.07692344h221.53846125c29.53846125 0 51.69230812 22.15384594 51.69230719 59.07692344s-22.15384594 59.07692344-51.69230719 59.07692343z"  horiz-adv-x="1181" />

    
    <glyph glyph-name="zhuodu" unicode="&#58895;" d="M873.413 143.623c57.692 136.025 26.584 300.612-70.98 426.74C732.863 660.008 642.652 777.37 583.83 847.22c-9.616 11.877-24.039 18.947-39.31 19.23l-0.847-0.567c-15.272 0-29.978-6.786-39.592-18.664-59.67-71.266-147.62-188.908-214.077-276.858-129.238-170.243-140.832-387.43 0-534.201 101.807-107.746 259.89-140.266 395.632-81.445 53.448-42.138 129.803-37.613 177.596 10.746 48.076 48.075 52.318 124.713 10.18 178.161z m-78.05 48.357c-44.119 9.335-90.214-4.805-121.887-36.762-31.956-32.238-45.246-78.335-35.915-122.733-99.262-37.048-210.965-11.03-283.927 66.174-103.787 108.31-101.24 276.292 6.787 417.69l37.33 49.771c48.075 63.63 101.523 134.329 145.923 188.91v0.565c54.296-66.741 125.278-158.65 183.817-234.722l3.676-4.807c67.871-89.363 102.655-216.057 64.195-324.084zM456.006 329.14c-49.208 0-89.08-40.158-89.08-89.648s39.872-89.645 89.08-89.645 89.08 40.156 89.08 89.645c0.282 49.49-39.59 89.647-89.08 89.647z m89.362 179.009c-24.602 0-44.68-20.078-44.68-44.682 0-24.603 20.077-44.682 44.68-44.682 24.604 0 44.683 20.079 44.683 44.682s-20.079 44.682-44.683 44.682z m133.762-179.01c-24.602 0-44.68-20.079-44.68-44.682s20.078-44.682 44.682-44.682c24.602 0 44.681 20.078 44.681 44.682 0 24.603-20.077 44.682-44.681 44.682z"  horiz-adv-x="1024" />

    
    <glyph glyph-name="shebei" unicode="&#59393;" d="M705.09568 512.72704v-64.3584h193.09568A64.36864 64.36864 0 0 0 962.56 384v-386.19136A64.36864 64.36864 0 0 0 898.19136-66.56H125.80864A64.36864 64.36864 0 0 0 61.44-2.19136V384a64.36864 64.36864 0 0 0 64.36864 64.36864H640.7168V512.7168h64.36864zM737.28 384H157.99296a32.18432 32.18432 0 0 1-32.18432-32.18432V30.0032a32.18432 32.18432 0 0 1 32.18432-32.18432H737.28a32.18432 32.18432 0 0 1 32.18432 32.18432V351.81568A32.18432 32.18432 0 0 1 737.28 384zM254.53568 255.27296a64.36864 64.36864 0 1 0 0-128.73728 64.36864 64.36864 0 0 0 0 128.73728z m257.46432 0a64.36864 64.36864 0 1 0 0-128.73728 64.36864 64.36864 0 0 0 0 128.73728zM640.72704 834.56C818.4832 834.56 962.56 690.47296 962.56 512.72704h-64.36864c0 142.19264-115.27168 257.46432-257.46432 257.46432-142.19264 0-257.45408-115.27168-257.45408-257.46432h-64.36864C318.90432 690.4832 462.98112 834.56 640.7168 834.56z m0-128.72704c106.6496 0 193.10592-86.45632 193.10592-193.10592h-64.36864c0 71.09632-57.64096 128.73728-128.73728 128.73728S512 583.82336 512 512.7168h-64.36864c0 106.6496 86.45632 193.10592 193.09568 193.10592z"  horiz-adv-x="1024" />

    
    <glyph glyph-name="xiaoyu" unicode="&#59134;" d="M722.944 575.488c-12.288 0-23.552-1.024-34.816-3.072C653.312 648.192 576.512 701.44 487.424 701.44c-114.688 0-208.896-88.064-218.112-199.68h-5.12c-76.8 0-140.288-63.488-140.288-140.288 0-76.8 63.488-140.288 140.288-140.288h465.92c94.208 4.096 169.984 81.92 169.984 177.152 0 97.28-79.872 177.152-177.152 177.152zM523.264 138.24c2.048 3.072 6.144 4.096 9.216 4.096 4.096 0 7.168-1.024 9.216-4.096 5.12-5.12 5.12-14.336 0-19.456l-41.984-43.008c-2.048-3.072-6.144-4.096-9.216-4.096-4.096 0-7.168 1.024-9.216 4.096-5.12 5.12-5.12 14.336 0 19.456l41.984 43.008zM490.496 66.56c-5.12 0-10.24 2.048-13.312 6.144-7.168 7.168-7.168 19.456 0 26.624l41.984 43.008c7.168 7.168 19.456 7.168 26.624 0 7.168-7.168 7.168-19.456 0-26.624l-41.984-43.008c-3.072-4.096-8.192-6.144-13.312-6.144z m43.008 70.656c-2.048 0-4.096-1.024-6.144-2.048l-41.984-43.008c-3.072-3.072-3.072-9.216 0-12.288 3.072-3.072 9.216-3.072 12.288 0l41.984 43.008c3.072 3.072 3.072 9.216 0 12.288-2.048 1.024-4.096 2.048-6.144 2.048z"  horiz-adv-x="1024" />

    
    <glyph glyph-name="dayu" unicode="&#58988;" d="M765.57 591.96c-35.23 109.6-137.19 183.92-252.31 183.92s-217.08-74.32-252.31-183.92c-91.38-17.33-154.91-100.89-147.15-193.58 7.76-92.69 84.28-164.54 177.27-166.44h444.34c99.14 1 178.71 82.17 177.73 181.31h0.02c0.64 87.48-61.57 162.81-147.59 178.71zM480.88 112.3c-15.37 6.48-22.57 24.18-16.1 39.55l16.37 38.83c6.48 15.37 24.18 22.57 39.55 16.1 15.37-6.48 22.57-24.18 16.1-39.55l-16.37-38.83c-6.47-15.37-24.18-22.58-39.55-16.1zM293.77 112.3c-15.37 6.48-22.57 24.18-16.1 39.55l16.37 38.83c6.48 15.37 24.18 22.57 39.55 16.1 15.37-6.48 22.57-24.18 16.1-39.55l-16.37-38.83c-6.47-15.37-24.18-22.58-39.55-16.1zM668 112.3c-15.37 6.48-22.57 24.18-16.1 39.55l16.37 38.83c6.48 15.37 24.18 22.57 39.55 16.1 15.37-6.48 22.57-24.18 16.1-39.55l-16.37-38.83c-6.48-15.37-24.19-22.58-39.55-16.1zM480.88-6.38c-15.37 6.48-22.57 24.18-16.1 39.55L481.16 72c6.48 15.37 24.18 22.57 39.55 16.1 15.37-6.48 22.57-24.18 16.1-39.55l-16.37-38.83c-6.48-15.37-24.19-22.58-39.56-16.1zM293.77-6.38c-15.37 6.48-22.57 24.18-16.1 39.55L294.04 72c6.48 15.37 24.18 22.57 39.55 16.1 15.37-6.48 22.57-24.18 16.1-39.55l-16.37-38.83c-6.47-15.37-24.18-22.58-39.55-16.1zM668-6.38c-15.37 6.48-22.57 24.18-16.1 39.55L668.27 72c6.48 15.37 24.18 22.57 39.55 16.1 15.37-6.48 22.57-24.18 16.1-39.55l-16.37-38.83c-6.48-15.37-24.19-22.58-39.55-16.1z"  horiz-adv-x="1024" />

    
    <glyph glyph-name="zhongyu" unicode="&#58887;" d="M482.048 741.376c108.544 0 202.24-65.536 244.224-159.744H733.952c95.744 0 173.312-78.592 173.312-175.36s-77.568-182.784-173.312-182.784h-7.424c-17.92 0-47.104 0-79.872 1.024l1.536-1.024h-358.4c-95.744 0-173.312 86.016-173.312 182.784 0 77.056 49.152 142.592 117.248 166.144 40.192 99.328 136.192 168.96 248.32 168.96z m227.072-584.192c12.032-7.936 16.128-23.552 9.728-36.096l-1.536-2.816-51.968-79.104c-8.448-13.056-25.856-16.64-38.912-7.936-12.032 7.936-16.128 23.552-9.728 36.096l1.536 2.816 51.968 79.104c8.448 12.8 25.856 16.384 38.912 7.936z m-333.312 0c12.032-7.936 16.128-23.552 9.728-36.096l-1.536-2.816-51.968-79.104c-8.448-13.056-25.856-16.64-38.912-7.936-12.032 7.936-16.128 23.552-9.728 36.096l1.536 2.816 51.968 79.104c8.704 12.8 26.112 16.384 38.912 7.936z m164.608 0c12.032-7.936 16.128-23.552 9.728-36.096l-1.536-2.816-51.968-79.104c-8.448-13.056-25.856-16.64-38.912-7.936-12.032 7.936-16.128 23.552-9.728 36.096l1.536 2.816 51.968 79.104c8.448 12.8 25.856 16.384 38.912 7.936z"  horiz-adv-x="1024" />

    
    <glyph glyph-name="gengduo" unicode="&#58882;" d="M258.0129999999999-8.817999999999984l393.02000000000004 393.01999999999987-393.01999999999987 393.02000000000004c-12.257999999999997 12.258-12.431999999999993 32.89200000000001 0.18700000000000117 45.510999999999996 12.707000000000003 12.706999999999997 32.995 12.701999999999993 45.512 0.18699999999999406l411.66099999999994-411.6610000000001c7.119999999999999-7.120000000000002 10.162999999999997-17.066000000000003 8.991999999999996-26.624000000000002 1.4999999999999982-9.755-1.5100000000000033-20.010999999999996-8.992000000000006-27.490999999999996l-411.661-411.65999999999997c-12.258-12.257999999999997-32.89200000000001-12.431999999999993-45.512 0.18700000000000117-12.706999999999997 12.707000000000003-12.701999999999993 32.995-0.18699999999999406 45.510999999999996z"  horiz-adv-x="1024" />

    
    <glyph glyph-name="up-copy" unicode="&#58881;" d="M14.43962576 405.74591785l652.37753843 0L666.81716419 345.34059006999996 14.43962576 345.34059006999996l1e-8 60.40532778zM673.81131166 586.5047106L1025.0901777 380.1980747l-351.27886604-211.88249064 0 418.18912654z"  horiz-adv-x="1024" />

    
    <glyph glyph-name="quxiantu" unicode="&#59037;" d="M97.44 864v-780.896a113.664 113.664 0 0 1 107.424-113.504l6.24-0.16H992a32 32 0 0 0 32-32V-96a32 32 0 0 0-32-32H211.104a211.104 211.104 0 0 0-210.976 203.52L0 83.104V864a32 32 0 0 0 32 32h33.44a32 32 0 0 0 32-32zM548.256 544.96l1.536-1.376c0.704-0.608 1.376-1.216 2.048-1.92l99.616-99.616a113.664 113.664 0 0 1 156.224-4.288l4.544 4.288 99.616 99.648a32 32 0 0 0 45.248 0l23.68-23.648a32 32 0 0 0 0-45.248l-99.648-99.648a211.104 211.104 0 0 0-293.12-5.248l-1.984 1.824a32.48 32.48 0 0 0-1.6 1.472l-99.616 99.648a113.664 113.664 0 0 1-156.224 4.288l-4.512-4.288L224.416 371.2a32 32 0 0 0-45.248 0l-23.648 23.648a32 32 0 0 0 0 45.248l99.648 99.648a211.104 211.104 0 0 0 293.12 5.248z"  horiz-adv-x="1024" />

    
    <glyph glyph-name="quxian" unicode="&#60053;" d="M916.086154 896h337.526154A6.695385 6.695385 0 0 0 1260.307692 889.304615v-331.776c0-2.678154-1.575385-5.12-4.096-6.222769a6.774154 6.774154 0 0 0-7.325538 1.417846L1132.150154 667.569231 670.404923 270.099692 410.939077 491.047385 0 152.103385v146.510769l410.939077 338.944L670.326154 416.452923l382.267077 329.176615L911.36 884.499692a6.774154 6.774154 0 0 0-1.496615 7.325539 6.616615 6.616615 0 0 0 6.301538 4.174769z m32.452923-1003.835077v499.396923l188.022154 162.028308v-661.425231a20.007385 20.007385 0 0 0-20.086154-20.086154h-147.849846a20.086154 20.086154 0 0 0-20.086154 20.086154z m-631.729231 403.534769l94.129231 77.508923L504.910769 293.179077v-401.014154a20.086154 20.086154 0 0 0-20.164923-20.086154H336.974769a20.086154 20.086154 0 0 0-20.164923 20.086154V295.699692zM1.102769-107.835077v143.044923L189.046154 190.306462v-298.141539a20.007385 20.007385 0 0 0-20.086154-20.086154H21.188923a19.928615 19.928615 0 0 0-14.178461 5.907693 20.007385 20.007385 0 0 0-5.907693 14.178461z m631.571693 292.233846l37.80923-32.137846L820.617846 281.6v-389.435077a20.164923 20.164923 0 0 0-20.086154-20.086154H652.760615a20.007385 20.007385 0 0 0-20.086153 20.086154v292.233846z"  horiz-adv-x="1260" />

    
    <glyph glyph-name="shike-mianxing" unicode="&#58897;" d="M512 742.4C314.0864 742.4 153.6 581.9136 153.6 384s160.4864-358.4 358.4-358.4 358.4 160.4864 358.4 358.4S709.9136 742.4 512 742.4z m141.2096-468.5568l-22.8864-31.2064a6.4 6.4 0 0 0-8.96-1.3568l-132.3264 96.4864a6.3232 6.3232 0 0 0-2.6368 5.1968V563.2a6.4 6.4 0 0 0 6.4 6.4h38.4768a6.4 6.4 0 0 0 6.4-6.4v-197.9904l114.0736-82.4832a6.2976 6.2976 0 0 0 1.4592-8.8832z"  horiz-adv-x="1024" />

    
    <glyph glyph-name="shike" unicode="&#58916;" d="M513.165967 895.534757a511.767378 511.767378 0 1 1 511.767379-511.767379A511.767378 511.767378 0 0 1 513.165967 895.534757z m255.883689-567.363926H497.347703a41.871876 41.871876 0 0 0-41.871877 41.871877V641.51204a41.988187 41.988187 0 0 0 83.976375 0v-229.364834H769.049656a41.871876 41.871876 0 1 0 0-83.743753z m0 0"  horiz-adv-x="1027" />

    
    <glyph glyph-name="yeweiji" unicode="&#59181;" d="M650.08 351.2V697.62c0 74.1-60.71 134.38-134.81 134.38s-134.78-60.28-134.78-134.38v-346.33C319.9 308.15 282 238.49 282 165.38 282 38.9 384.1-64 509.59-64 637.57-64 742 38.9 742 165.38c0 76.09-34.37 144.25-91.92 185.82z m-11.39-312.34A182.71 182.71 0 0 0 509.59-14C411.65-14 332 66.47 332 165.38A172.06 172.06 0 0 0 352.61 246a189 189 0 0 0 56.88 64.53l20.77 14.8h56.25a17.5 17.5 0 0 1 0 35h-56v33.36h56a17.5 17.5 0 0 1 0 35h-56V462h56a17.5 17.5 0 0 1 0 35h-56v33.37h56a17.5 17.5 0 0 1 0 35h-56v33.34H486a17.5 17.5 0 0 1 0 35h-55.51v63.91a84.8 84.8 0 0 0 169.59 0v-372l20.72-15A169.25 169.25 0 0 0 672.86 249C685.4 223.77 692 194.86 692 165.38c0-47.66-18.91-92.6-53.31-126.52zM379.19 207.27c-4.41-15.4-7.42-28.42-7.42-43.5 0-77.4 62.75-140.41 140.11-140.41S652 86.55 652 163.92c0 15.07-3 27.91-7.41 43.35z"  horiz-adv-x="1024" />

    
    <glyph glyph-name="yewei2" unicode="&#59138;" d="M508.21 93.23a97.09 97.09 0 0 1 95.45 98.58 98.58 98.58 0 0 1-40.74 80v65.73h115v50.77h-115v80.34h115v50.28h-115v84.45h115v50.11h-115v95.95c0 77.06-114.19 77.06-114.19 0v-480.25a98.57 98.57 0 0 1-36.64-77.55 97.11 97.11 0 0 1 95.46-98.58z m111.72 72.12a111.37 111.37 0 0 0-26-50.6 168.74 168.74 0 0 1 54.88-10.52c42.06 0 83.95 29.41 127.66 29.41s86.75-29.73 128.65-29.73V162.4c-41.9 0-85.28 29.74-128.65 29.74s-85.23-29.74-127.29-29.74a96.84 96.84 0 0 0-28.92 3z m156.58-87.9c-43.38 0-84-29.9-127.33-29.9s-83.8 29.9-127.17 29.9-86.75-29.9-130.13-29.9c-40.41 0-83.79 29.9-127.16 29.9s-84.13-29.9-127.5-29.9v-59.48c43.37 0 83.79 29.74 127.17 29.74s86.75-29.74 127.16-29.74c43.38 0 86.75 29.74 130.13 29.74s83.79-29.74 127.17-29.74 83.95 29.74 127.33 29.74 86.75-29.74 130-29.74v59.48c-43.21 0-86.59 29.9-130 29.9z m-385 26.78a102.5 102.5 0 0 1 36.15 5.92 121.69 121.69 0 0 0-29.08 52.25h-7.23c-41.9 0-83.79 29.74-128.65 29.74-41.89 0-83.79-29.74-127.17-29.74v-59.64c43.47 0 85.32 31.24 127.21 31.24s86.75-29.74 128.65-29.74z m0 0"  horiz-adv-x="1024" />

    
    <glyph glyph-name="yewei1" unicode="&#58909;" d="M524.970667 775.509333a375.466667 375.466667 0 1 1 375.466666-375.466666 375.466667 375.466667 0 0 1-375.466666 375.466666z m0-704.170666A328.704 328.704 0 1 0 853.333333 400.384a329.045333 329.045333 0 0 0-328.362666-329.045333zM522.581333 126.976a276.821333 276.821333 0 0 1 285.354667 267.264c0 34.133333-146.432 70.997333-285.354667 0s-270.677333 0-285.013333 0a276.48 276.48 0 0 1 285.013333-267.264"  horiz-adv-x="1024" />

    
    <glyph glyph-name="wushuibengzhan1" unicode="&#59349;" d="M511 145c-64.1 0-124.4 25-169.7 70.3S271 320.9 271 385s25 124.4 70.3 169.7S446.9 625 511 625s124.4-25 169.7-70.3S751 449.1 751 385s-25-124.4-70.3-169.7S575.1 145 511 145z m0 400c-88.2 0-160-71.8-160-160s71.8-160 160-160 160 71.8 160 160-71.8 160-160 160zM916.4 556.3c-22.2 52.4-53.9 99.5-94.3 139.8a441.46 441.46 0 0 1-58.6 49.2h151v80h-400v-0.3h-3.6c-59.4 0-117-11.6-171.3-34.6-52.4-22.2-99.5-53.9-139.8-94.3s-72.1-87.4-94.3-139.8C82.6 502 71 444.4 71 385s11.6-117 34.6-171.3c22.2-52.4 53.9-99.5 94.3-139.8 18.1-18.1 37.4-34.4 58-48.9H111v-80h400c59.4 0 117 11.6 171.3 34.6 52.4 22.2 99.5 53.9 139.8 94.3 40.4 40.4 72.1 87.4 94.3 139.8C939.4 268 951 325.6 951 385s-11.6 117-34.6 171.3zM765.6 130.4C697.6 62.4 607.2 25 511 25c-96.2 0-186.6 37.4-254.6 105.4S151 288.8 151 385c0 96.2 37.4 186.6 105.4 254.6S414.8 745 511 745c96.2 0 186.6-37.4 254.6-105.4S871 481.2 871 385c0-96.2-37.4-186.6-105.4-254.6z"  horiz-adv-x="1024" />

    
    <glyph glyph-name="flow" unicode="&#58880;" d="M505.994 876.308c-271.892 0-492.308-220.416-492.308-492.308s220.416-492.308 492.308-492.308 492.308 220.416 492.308 492.308-220.416 492.308-492.308 492.308zM897.083 324.923h-118.745c-14.789 0-28.042 5.022-33.812 18.491-0.295 0.709-0.591-0.492-0.866 0.256l-33.733 94.247-80.699-228.903c-4.923-13.923-17.664-23.788-32.374-24.694-0.768-0.059-1.536-0.197-2.304-0.197-13.844 0-26.624 7.759-32.886 20.263l-82.511 165.002-19.2-29.775c-6.577-11.461-18.767-14.691-31.96-14.691h-313.108c-20.323 0-36.785 19.062-36.785 39.404 0 20.283 16.463 39.365 36.785 39.365h291.762l42.713 67.486c6.597 11.559 18.924 11.284 32.118 11.284 0.276 0 0.551 0 0.827 0 13.568 0 25.817-7.385 31.882-19.535l74.535-148.618 86.489 243.417c5.179 14.69 19.082 23.197 34.658 23.197h0.020c15.577 0 29.46-1.831 34.659-16.502l59.786-160.729h92.751c20.283 0 36.785-19.082 36.785-39.365 0-20.342-16.502-39.404-36.785-39.404z"  horiz-adv-x="1024" />

    
    <glyph glyph-name="wushuichang" unicode="&#59170;" d="M832.512 331.264l-5.12 119.296-422.4 144.896v-264.704H298.496V754.176h-112.64l5.632-423.424H84.48v-317.44h855.04v317.44h-107.008z"  horiz-adv-x="1024" />

    
    <glyph glyph-name="wushuibengzhan" unicode="&#59323;" d="M509.2 785.6c-220.9 0-400-179.1-400-400s179.1-400 400-400 400 179.1 400 400-179.1 400-400 400z m150.7-246.2c39.9-39.1 64.7-93.6 64.7-153.8 0-119-96.4-215.4-215.4-215.4H201.5v61.5h157c-39.9 39.1-64.7 93.6-64.7 153.8 0 119 96.4 215.4 215.4 215.4h307.7v-61.5h-157zM509.2 539.4c-85 0-153.8-68.9-153.8-153.8s68.9-153.8 153.8-153.8S663 300.6 663 385.6s-68.9 153.8-153.8 153.8z m0-260.6c-58.9 0-106.8 47.9-106.8 106.8s47.9 106.8 106.8 106.8S616 444.5 616 385.6c-0.1-58.9-48-106.8-106.8-106.8zM452.090175 328.480269a80.8 80.8 0 1 1 114.266462 114.270451 80.8 80.8 0 1 1-114.266462-114.270451Z"  horiz-adv-x="1024" />

    
    <glyph glyph-name="yewei" unicode="&#58889;" d="M228.42 253.84c0 56.38 36.05 104.34 86.34 122.17V728.7c0 23.84 19.33 43.17 43.17 43.17h259.01c23.84 0 43.17-19.33 43.17-43.17s-19.33-43.17-43.17-43.17H401.09v-86.34h215.85c23.84 0 43.17-19.33 43.17-43.17 0-23.84-19.33-43.17-43.17-43.17H401.09V376c50.29-17.83 86.34-65.79 86.34-122.17h336.43c23.84 0 43.17-19.33 43.17-43.17 0-23.84-19.33-43.17-43.17-43.17H200.14c-23.84 0-43.17 19.33-43.17 43.17 0 23.84 19.33 43.17 43.17 43.17h28.28z m86.34 0h86.34c0 23.84-19.33 43.17-43.17 43.17-23.85 0-43.17-19.33-43.17-43.17z m509.1-259.02H200.14c-23.84 0-43.17 19.33-43.17 43.17 0 23.84 19.33 43.17 43.17 43.17h623.72c23.84 0 43.17-19.33 43.17-43.17 0-23.84-19.33-43.17-43.17-43.17z"  horiz-adv-x="1024" />

    
    <glyph glyph-name="liuliang" unicode="&#58931;" d="M615.873835-127.983218a66.861736 66.861736 0 0 0-63.132396 45.284841L428.341318 283.309689l-33.297677-53.276283a66.595354 66.595354 0 0 0-56.206479-30.900244H66.595354a66.595354 66.595354 0 0 0 0 133.190708h235.481172l88.172249 139.051099a66.595354 66.595354 0 0 0 119.338875-14.118215l88.43863-260.521025L721.360876 842.710664a66.861736 66.861736 0 0 0 64.197921 53.276283A67.394498 67.394498 0 0 0 852.420533 844.308952l147.841686-644.376646 24.240709 79.914425a66.328973 66.328973 0 0 0 63.665159 47.415892H1598.288499a66.595354 66.595354 0 0 0 0-133.190708H1136.915886L1054.87041-80.567326a67.66088 67.66088 0 0 0-66.062592-47.415892 66.328973 66.328973 0 0 0-62.599633 51.677995l-133.190708 582.309776-111.613813-579.912343a66.595354 66.595354 0 0 0-61.001345-53.276284z"  horiz-adv-x="1664" />

    
    <glyph glyph-name="jianchajing" unicode="&#59164;" d="M512 896a512 512 0 1 0 0-1024A512 512 0 0 0 512 896z m0-192a320 320 0 1 1 0-640A320 320 0 0 1 512 704z m0-192a128 128 0 1 0 0-256 128 128 0 0 0 0 256z"  horiz-adv-x="1024" />

    
    <glyph glyph-name="wushuijianchajing" unicode="&#59456;" d="M512 384m-426.666667 0a426.666667 426.666667 0 1 1 853.333334 0 426.666667 426.666667 0 1 1-853.333334 0ZM512 640a256 256 0 1 0 0-512 256 256 0 0 0 0 512z m-20.48-276.48l-191.146667-0.042667a212.693333 212.693333 0 0 1 191.146667-191.061333V363.52z m232.106667-0.042667l-191.146667 0.042667 0.042667-191.146667a212.693333 212.693333 0 0 1 191.061333 191.104z m-232.106667 232.106667a212.693333 212.693333 0 0 1-191.146667-191.104h191.146667z m41.002667 0l-0.042667-191.104h191.146667a212.693333 212.693333 0 0 1-191.104 191.146667z"  horiz-adv-x="1024" />

    
    <glyph glyph-name="shouye" unicode="&#58892;" d="M763.612-65.987H589.447a31.503 31.503 0 0 0-32.402 32.403V145.531h-99.909v-179.115a31.503 31.503 0 0 0-32.402-32.403H253.269a97.388 97.388 0 0 0-97.208 97.208V315.195h-18.452a74.931 74.931 0 0 0-75.606 75.607 73.491 73.491 0 0 0 21.152 52.204l327.627 346.98a141.672 141.672 0 0 0 199.367 5.85 10.53 10.53 0 0 1 5.4-5.4l327.628-347.43a75.156 75.156 0 0 0-54.904-127.81H860.37V31.22a97.298 97.298 0 0 0-96.758-97.208zM622.75-1.18h140.412a33.978 33.978 0 0 1 33.753 33.753V347.598a31.503 31.503 0 0 0 32.403 32.403h60.755a10.53 10.53 0 0 1 9.9 7.2 11.431 11.431 0 0 1-2.7 12.601l-328.977 345.63a75.966 75.966 0 0 1-108.46 2.7 2.925 2.925 0 0 1-2.7-2.7L129.51 399.351a11.16 11.16 0 0 1 0-15.3 10.396 10.396 0 0 1 8.55-2.701h52.205a31.503 31.503 0 0 0 32.403-32.403v-316.376a33.978 33.978 0 0 1 33.752-33.753h138.612V154.532a64.805 64.805 0 0 0 64.805 64.805h99.909a64.805 64.805 0 0 0 64.805-64.805l-1.8-155.713z"  horiz-adv-x="1027" />

    
    <glyph glyph-name="guanwang" unicode="&#58969;" d="M421.4 36.1h-125c-15.7 0-28.5 13-28.5 29s12.8 29 28.5 29h125.1c15.7 0 28.5-13 28.5-29-0.1-16-12.8-29-28.6-29z m-65.2 101.2c-143.1 0-259.6 116.4-259.6 259.5V707.4c0 13.5 11 24.5 24.5 24.5s24.5-11 24.5-24.5v-310.5c0-116.1 94.5-210.6 210.6-210.6s210.6 94.5 210.6 210.6V452c0 56.2 45.6 102 101.6 102 56.2 0 102-45.7 102-102v-146c0-13.5-11-24.5-24.5-24.5s-24.5 11-24.5 24.5V452c0 29.2-23.8 53-53 53-29 0-52.7-23.8-52.7-53v-55.2c0-143-116.4-259.5-259.5-259.5z m0 0M903.5 281.5c-13.5 0-24.5 11-24.5 24.5V452c0 116.1-94.5 210.6-210.6 210.6-116 0-210.3-94.5-210.3-210.6v-55.2c0-56.2-45.7-102-101.9-102s-102 45.7-102 102V707.4c0 13.5 11 24.5 24.5 24.5s24.5-11 24.5-24.5v-310.5c0-29.2 23.8-53 53-53s53 23.8 53 53V452c0 143.1 116.3 259.6 259.2 259.6C811.5 711.6 928 595.2 928 452v-146c0-13.5-11-24.5-24.5-24.5z m0 0"  horiz-adv-x="1024" />

    
    <glyph glyph-name="shouce" unicode="&#59017;" d="M986.020878 799.547041c0 17.941808-13.739738 36.490454-36.639301 36.490453h-0.996131c-19.670725-0.457991-35.677519-17.048725-35.677519-36.982794v-857.474137H199.168993c-50.653833 0-91.861597 42.810733-91.861597 95.422479v49.085213c0 52.668995 43.016829 95.422479 95.88047 95.422479h568.985442a68.801737 68.801737 0 0 1 68.801737 68.801737l0.343494 575.809512c0 38.001825-31.143406 69.843667-69.145231 69.843668L154.835439 896h-0.148848a127.768112 127.768112 0 0 1-81.73999-36.799598A117.303012 117.303012 0 0 1 37.978969 775.559748v-739.140645a162.850242 162.850242 0 0 1 48.524174-116.123684 164.430312 164.430312 0 0 1 116.684723-48.295179h713.252689c38.001825 0 69.488724 30.799912 69.488724 68.801738zM107.307396 775.559748a47.619641 47.619641 0 0 0 47.67689 47.447895h617.063075v-566.214595H203.187866c-41.219213 0-73.610645-16.957126-95.88047-31.864742zM808.114172 89.843783H245.42611c-17.632664 0-35.872165-13.419144-35.872166-35.872165 0-22.132428 13.739738-35.872165 35.872166-35.872165h562.688062C825.723936 18.088003 844.043587 31.541496 844.043587 53.971618s-18.31965 35.872165-35.929415 35.872165z"  horiz-adv-x="1024" />

    


  </font>
</defs>
</svg>
